<?xml version="1.0" standalone="no"?>
<!DOCTYPE svg PUBLIC "-//W3C//DTD SVG 20010904//EN"
 "http://www.w3.org/TR/2001/REC-SVG-20010904/DTD/svg10.dtd">
<svg version="1.0" xmlns="http://www.w3.org/2000/svg"
 width="200.000000pt" height="200.000000pt" viewBox="0 0 200.000000 200.000000"
 preserveAspectRatio="xMidYMid meet">
<metadata>
Created by potrace 1.11, written by Peter Selinger 2001-2013
</metadata>
<g transform="translate(0.000000,200.000000) scale(0.100000,-0.100000)"
fill="#000000" stroke="none">
<path d="M315 1728 c-5 -14 -29 -128 -105 -483 -28 -132 -54 -253 -57 -270 -4
-16 -7 -32 -8 -35 0 -3 -8 -39 -18 -80 -9 -41 -19 -87 -21 -103 -3 -15 -7 -35
-10 -45 -3 -9 -8 -29 -11 -44 -14 -74 -73 -353 -82 -385 l-5 -23 176 0 c97 0
176 3 177 8 0 4 2 15 4 25 2 10 11 62 19 115 9 53 18 108 20 122 3 14 5 31 5
38 1 9 36 12 140 12 155 0 146 5 155 -75 3 -22 10 -65 16 -95 6 -30 13 -71 16
-90 3 -19 7 -41 9 -47 5 -16 355 -19 355 -3 0 5 -9 49 -21 97 -11 48 -23 99
-25 113 -3 14 -19 86 -35 160 -29 129 -33 149 -43 195 -2 11 -9 40 -15 65 -5
25 -12 56 -15 70 -3 14 -7 34 -10 45 -17 72 -26 114 -31 145 -3 19 -12 60 -20
90 -8 30 -17 71 -20 90 -3 19 -8 43 -11 52 -5 17 -11 42 -20 88 -3 14 -14 66
-26 115 -11 50 -21 97 -23 105 -2 8 -4 21 -4 28 -1 18 -450 18 -456 0z m239
-384 c2 -21 16 -109 31 -194 28 -169 29 -176 39 -236 l7 -41 -91 0 -90 1 5 30
c2 17 11 69 19 116 9 47 18 108 22 135 3 28 8 59 10 70 2 10 6 37 10 60 3 22
8 47 9 55 2 8 4 29 5 45 1 40 17 14 24 -41z"/>
<path d="M1545 1735 c-5 -2 -73 -20 -150 -40 -77 -21 -144 -41 -149 -46 -5 -4
-9 -61 -9 -126 l-1 -118 30 1 c16 0 45 4 64 7 19 3 55 9 80 12 24 4 48 9 52
11 5 3 8 -200 8 -450 0 -358 -3 -456 -12 -457 -7 0 -51 -1 -98 -2 l-85 -2 0
-130 0 -130 363 -3 363 -2 -3 132 -3 133 -95 1 -95 0 -3 607 -2 607 -123 -1
c-67 0 -126 -2 -132 -4z"/>
</g>
</svg>
